<svg version="1.1" id="Layer_1" xmlns="http://www.w3.org/2000/svg" xmlns:xlink="http://www.w3.org/1999/xlink" x="100px" y="100px"
	 width="100%" viewBox="10 10 1024 1024" enable-background="new 10 10 1024 1024" xml:space="preserve">
<path fill="#000000" opacity="1.000000" stroke="none" 
	d="
M642.554993,822.260620 
	C623.645752,827.249817 604.930298,827.205444 586.090698,825.306580 
	C578.441467,824.535706 570.785034,825.112854 563.150879,825.921936 
	C546.481750,827.688477 529.896179,825.184692 513.290161,824.574951 
	C500.490417,824.104980 487.670715,824.409912 474.854553,823.324158 
	C465.253906,822.510925 456.373718,819.075806 446.994690,817.726135 
	C438.761078,816.541199 430.859619,814.829041 423.189911,810.955750 
	C414.657928,806.647156 404.805725,806.426086 395.312073,806.180786 
	C386.261719,805.946960 377.622040,804.485596 370.398407,798.820007 
	C363.568939,793.463379 355.995239,795.055298 348.800903,796.247437 
	C340.041138,797.699036 332.859436,794.169678 326.274231,789.994141 
	C320.664703,786.437256 314.908020,782.525574 308.992523,780.423584 
	C291.346283,774.153198 277.663055,761.676575 262.017883,752.357666 
	C253.520615,747.296387 244.892456,742.741699 235.795120,739.076050 
	C224.470047,734.512756 216.835587,725.842041 211.256149,715.789612 
	C205.795410,705.951050 201.836929,695.216125 197.892303,684.623962 
	C195.803024,679.013794 196.412277,672.765320 196.734482,666.800171 
	C197.096817,660.092590 197.350235,653.537048 194.434662,647.187256 
	C193.346069,644.816345 192.835327,642.061951 192.608093,639.435059 
	C191.805878,630.160645 190.541061,621.056763 188.484024,611.894348 
	C186.477249,602.955872 186.446457,593.213562 189.344299,584.193298 
	C194.489059,568.178955 196.552505,551.689331 197.377853,535.063232 
	C198.515656,512.143494 204.030289,490.015320 208.186218,467.613770 
	C210.098190,457.307770 209.594788,446.749268 207.342300,436.329071 
	C202.936447,415.947510 199.223526,395.426971 201.055969,374.442322 
	C201.988449,363.763763 205.193375,353.567383 210.298431,344.100830 
	C215.613220,334.245270 227.682358,332.946045 235.625977,337.063019 
	C248.764786,343.872498 261.694672,351.259430 272.783173,361.285583 
	C280.960327,368.679321 289.773346,371.229584 300.305328,366.517365 
	C305.762695,364.075623 311.575806,362.435059 317.205811,360.371460 
	C324.773102,357.597687 325.287933,354.426208 322.225250,347.291687 
	C317.506226,336.298615 313.155487,324.864502 318.297638,312.617706 
	C322.415497,302.810577 325.497192,291.881500 334.907135,285.874725 
	C350.201385,276.111694 366.469940,268.888794 385.261108,276.251190 
	C385.570038,276.372192 385.905487,276.533234 386.220093,276.516510 
	C398.715942,275.853149 411.452728,277.809814 423.615112,273.523224 
	C429.634888,271.401581 435.600555,269.617859 442.092377,269.888397 
	C449.578552,270.200348 456.961548,269.686737 464.442322,268.426727 
	C473.821533,266.846985 483.416962,267.121918 492.287109,271.678162 
	C494.929352,273.035370 497.684723,273.151825 500.559418,272.612671 
	C512.303589,270.410004 524.289612,269.860016 535.859314,266.270569 
	C546.205444,263.060699 556.329468,266.006378 565.989380,270.083191 
	C573.410400,273.215118 580.928284,275.632904 589.055481,276.140625 
	C594.252808,276.465302 599.349915,277.862152 603.547852,281.085266 
	C610.727783,286.597809 619.001038,289.488312 627.542969,291.878937 
	C631.608398,293.016724 635.295959,294.831299 638.379333,297.814026 
	C641.844849,301.166473 646.266846,302.615448 650.776550,303.962067 
	C671.513855,310.154388 692.216248,316.435364 711.805969,325.861816 
	C716.294373,328.021606 720.944519,330.282349 725.768555,331.223694 
	C739.052795,333.815948 747.007568,343.421539 754.633362,352.986572 
	C758.908752,358.349213 762.782898,363.838409 768.400513,367.904633 
	C781.134094,377.121704 789.070435,390.400024 797.463501,403.151489 
	C813.028076,426.798401 819.418518,453.971832 826.212219,480.922668 
	C829.768188,495.029358 834.045532,508.936188 841.042725,521.679443 
	C848.009888,534.368164 849.182434,548.406189 851.413940,562.084534 
	C852.492249,568.694214 850.110168,575.917114 849.026550,582.820190 
	C847.157715,594.724976 847.988281,606.756714 847.374329,618.713379 
	C846.585815,634.068542 843.949280,649.039429 841.734863,664.169678 
	C839.010010,682.786987 835.080261,700.872681 826.829895,717.813416 
	C821.730774,728.283447 816.395508,738.661133 810.627625,748.773010 
	C807.827942,753.681335 805.744446,758.914978 802.725403,763.745422 
	C798.300659,770.825073 792.652283,776.461487 786.122009,781.433960 
	C783.666199,783.303894 780.897644,784.327271 777.969360,785.056580 
	C767.959839,787.549377 757.948914,789.995178 747.656555,791.124390 
	C742.480164,791.692322 737.547363,793.140991 733.288635,796.408447 
	C730.861572,798.270569 727.896790,799.031189 724.985901,799.733093 
	C716.350281,801.815186 708.408081,805.775085 700.111633,808.771301 
	C698.176270,809.470276 696.651001,810.721985 695.269714,812.205566 
	C688.980774,818.960449 680.952209,821.767700 671.985413,821.997437 
	C662.328125,822.244934 652.661865,822.144409 642.554993,822.260620 
M640.715576,421.360321 
	C623.164978,423.251678 608.297058,430.285431 600.450439,446.680115 
	C591.849792,464.650208 594.795532,484.394958 613.857544,496.378448 
	C626.452515,504.296387 640.365234,509.308228 654.511536,513.675781 
	C664.307617,516.700195 673.446960,520.852112 680.662842,528.460022 
	C685.353638,533.405762 687.110657,539.430542 686.125854,545.909973 
	C683.984863,559.996765 676.024292,569.983276 663.533447,576.702820 
	C649.254150,584.384521 633.926819,585.929749 618.093262,585.412720 
	C603.149414,584.924622 589.281555,581.361450 577.005371,572.470093 
	C564.331726,563.290771 557.620972,551.102600 557.638062,535.305542 
	C557.678528,497.978485 557.652893,460.651398 557.649841,423.324310 
	C557.649719,421.825104 557.658447,420.322784 557.568542,418.827576 
	C557.480957,417.369049 556.887085,416.151764 555.219910,416.147217 
	C553.623047,416.142853 553.569885,417.505859 553.382385,418.654083 
	C552.495728,424.081818 548.839111,426.943695 544.005066,428.604584 
	C537.496643,430.840698 530.704468,431.201782 523.903015,431.409302 
	C521.516724,431.482086 519.046082,431.252350 516.983948,433.435120 
	C517.773560,433.933350 518.168274,434.390198 518.585693,434.411987 
	C521.242615,434.550842 523.904602,434.589020 526.564758,434.669128 
	C532.334106,434.842804 534.321472,436.805023 534.327332,442.544312 
	C534.351746,466.540283 534.330750,490.536255 534.351990,514.532227 
	C534.356873,520.006836 534.542847,525.439148 535.260010,530.917175 
	C537.108765,545.039490 543.561096,556.984314 553.267822,566.758118 
	C568.821838,582.419495 588.725403,589.210022 610.323853,590.472290 
	C623.711182,591.254639 637.171997,591.113342 650.579163,588.777161 
	C668.040588,585.734558 683.604614,579.463135 696.269287,566.619080 
	C707.459412,555.270508 711.381409,535.580872 704.214966,521.356079 
	C696.923401,506.882935 683.542480,499.882507 669.150391,494.459534 
	C655.669006,489.379669 641.760559,485.455261 629.059753,478.326447 
	C619.675903,473.059357 615.584534,465.500000 616.670044,454.914185 
	C617.916626,442.756592 623.054382,433.463715 635.166748,429.041962 
	C641.719543,426.649811 648.532104,426.012024 655.291870,426.789062 
	C665.105286,427.917114 673.821228,431.732239 680.192383,439.752655 
	C688.281921,449.936523 691.865906,461.584839 691.327148,474.513428 
	C691.150574,478.750641 692.687256,480.696228 697.581360,479.771027 
	C696.390442,474.653351 696.509705,469.686798 696.679321,464.741089 
	C697.170288,450.423462 694.940857,436.179382 695.620056,421.859406 
	C695.722412,419.701874 695.486511,417.560730 692.672729,416.544800 
	C689.177002,423.364868 693.449402,430.340820 691.856201,437.695831 
	C687.816895,433.759674 684.072327,430.556671 679.842651,427.978058 
	C675.392395,425.264954 670.539734,423.620483 665.525635,422.338959 
	C657.635925,420.322540 649.614319,421.814697 640.715576,421.360321 
M440.429108,531.703979 
	C450.058350,538.236206 451.255585,547.678101 450.537384,558.380371 
	C449.764099,569.903931 436.995728,582.847778 426.189545,585.211792 
	C418.212372,586.956848 410.122772,587.882812 401.942261,587.324219 
	C388.858063,586.430603 377.946289,581.461670 370.170685,570.436646 
	C363.075867,560.376892 360.839325,548.856445 360.753906,537.022278 
	C360.478363,498.865021 360.664703,460.704529 360.600189,422.545410 
	C360.596802,420.526703 361.646332,417.889038 358.709839,416.606293 
	C354.031372,425.939636 350.169312,429.508148 342.454437,430.151520 
	C337.171783,430.592072 331.950226,431.880829 326.575439,431.450897 
	C324.956085,431.321350 322.765930,430.808197 322.206421,433.464813 
	C323.844696,435.301178 325.979126,434.595276 327.878540,434.625275 
	C336.554108,434.762207 338.341888,436.501221 338.345123,445.188141 
	C338.355133,472.016266 338.417694,498.844604 338.317108,525.672363 
	C338.277466,536.242920 340.016388,546.462219 343.380890,556.439331 
	C347.537567,568.765381 354.576630,579.042542 365.492889,586.286621 
	C379.861481,595.821777 395.624359,598.521057 412.609314,595.758362 
	C425.597229,593.645996 437.224152,589.154541 446.458405,579.435364 
	C456.928741,568.415161 461.329590,548.369080 449.702637,534.318665 
	C448.234711,532.544800 445.319214,531.974548 444.965637,528.965515 
	C450.010620,528.505066 454.825623,528.065552 460.000885,527.593201 
	C455.378265,525.818542 451.091217,524.717285 446.569061,524.386169 
	C439.946045,523.901245 435.871246,519.301941 435.652405,512.556763 
	C435.225464,499.398560 435.916443,486.342773 438.667664,473.416107 
	C441.825562,458.578918 447.807129,445.395203 460.082092,435.803925 
	C465.764282,431.364044 472.021118,428.478485 479.788849,428.986938 
	C478.970428,432.114258 477.887665,434.522797 478.732056,437.323090 
	C480.388336,442.815918 486.888611,447.970459 492.048157,447.558655 
	C497.036011,447.160614 502.793091,442.340790 503.595184,437.891571 
	C504.849762,430.932251 501.569702,423.958832 494.933960,422.469055 
	C485.069672,420.254425 474.945374,419.517456 465.273621,423.927399 
	C452.996735,429.525177 445.111816,439.153748 439.769958,451.315796 
	C437.190338,457.188873 434.877228,463.158081 432.395355,469.157959 
	C433.056122,450.644745 432.794861,432.235168 431.412231,413.331085 
	C425.904114,433.771454 407.237305,432.351379 391.920807,437.531128 
	C396.099609,440.800934 400.025848,439.418182 403.620544,439.581726 
	C410.139313,439.878357 412.286469,441.764008 412.302429,448.331116 
	C412.353851,469.493561 412.369476,490.656250 412.310059,511.818604 
	C412.286743,520.135193 408.027222,524.227722 399.592499,524.373840 
	C396.184845,524.432922 392.727570,524.133606 388.892548,525.679016 
	C390.994934,528.505188 393.594177,528.601135 396.200256,528.609131 
	C405.531677,528.637695 414.866791,528.803467 424.193237,528.593262 
	C429.620209,528.471008 434.777771,529.186523 440.429108,531.703979 
M350.283081,633.345215 
	C348.622559,633.343872 346.946136,633.489502 345.304657,633.312134 
	C341.276123,632.876709 340.166351,634.735413 340.264008,638.542847 
	C340.481049,647.005798 340.417694,655.479858 340.277740,663.946228 
	C340.221832,667.328979 341.427765,668.865662 344.908081,668.689148 
	C348.054993,668.529602 351.216736,668.687622 354.371246,668.648132 
	C362.293152,668.549072 370.053864,662.519104 371.528809,655.352478 
	C373.319489,646.651794 369.793396,639.661011 361.748413,635.796509 
	C358.398590,634.187317 354.784607,633.857544 350.283081,633.345215 
M627.452271,648.351074 
	C626.119629,648.360474 624.785583,648.412598 623.454590,648.369995 
	C620.913696,648.288757 619.376465,649.053406 619.320312,652.013062 
	C619.263794,654.993164 620.715637,655.731506 623.317688,655.698181 
	C624.899902,655.677979 626.839172,655.434204 627.156860,657.836670 
	C627.371277,659.458069 626.907166,660.677917 625.378357,661.585144 
	C618.548157,665.638306 608.995361,660.559387 608.668701,652.648804 
	C608.257141,642.679382 615.323547,637.692810 625.142212,641.317505 
	C628.064331,642.396179 630.601746,642.849548 631.714050,639.616089 
	C632.749817,636.605164 629.659912,635.804382 627.707214,634.923584 
	C620.225525,631.548767 610.724243,633.545105 605.712219,639.337708 
	C600.466370,645.400574 599.904053,654.296753 604.299622,661.685852 
	C608.072205,668.027710 616.897827,670.876831 625.425598,668.505920 
	C633.886414,666.153625 634.462830,664.849243 634.765564,654.325500 
	C634.911865,649.240356 632.890320,647.765015 627.452271,648.351074 
M683.649475,661.303345 
	C683.918030,656.772949 683.068726,652.162659 684.200439,647.723877 
	C685.994263,647.637451 686.590393,648.613342 687.305664,649.556519 
	C691.513550,655.106018 695.922791,660.511047 699.929321,666.200623 
	C701.454651,668.366455 703.135498,668.958008 705.402710,668.517212 
	C708.245056,667.964722 707.613342,665.567383 707.626160,663.685181 
	C707.682922,655.364197 707.698547,647.042053 707.616516,638.721436 
	C707.595398,636.579895 708.497498,633.657349 704.785339,633.483643 
	C700.812134,633.297668 701.469727,636.275513 701.339966,638.704651 
	C701.062561,643.894470 701.964844,649.160645 700.766541,654.293884 
	C698.727478,654.291077 698.274353,653.011536 697.477539,651.946472 
	C693.305359,646.369202 688.933411,640.939819 684.825684,635.316772 
	C683.355957,633.304932 681.599243,633.205017 679.570862,633.563843 
	C677.698669,633.895081 677.370605,635.359802 677.370605,636.962402 
	C677.370667,646.448608 677.376892,655.934814 677.378906,665.421021 
	C677.379333,667.409485 678.239502,668.535461 680.351074,668.580017 
	C682.352783,668.622253 683.539368,667.827637 683.601440,665.723755 
	C683.635742,664.559570 683.634033,663.394287 683.649475,661.303345 
M414.336853,637.044067 
	C414.337769,646.041687 414.445374,655.041199 414.285309,664.035950 
	C414.224243,667.468018 415.376923,668.839111 418.896210,668.711426 
	C424.554016,668.506348 430.224640,668.664185 435.889801,668.648438 
	C438.073639,668.642334 440.492554,668.880188 440.559479,665.639526 
	C440.633820,662.039246 437.946014,662.396790 435.634460,662.361816 
	C432.469421,662.313904 429.302032,662.304993 426.137543,662.370972 
	C423.459930,662.426819 421.701416,661.813110 421.644836,658.552307 
	C421.588837,655.325012 423.152832,654.543213 425.944580,654.649536 
	C428.606445,654.750854 431.275909,654.681519 433.941498,654.647461 
	C436.105133,654.619812 438.508087,654.926453 438.593628,651.636353 
	C438.677643,648.404968 436.435089,648.392639 434.167053,648.385437 
	C431.501129,648.377014 428.834320,648.313477 426.169556,648.363281 
	C423.518372,648.412842 421.688629,647.853149 421.644470,644.569946 
	C421.600983,641.340271 423.233704,640.605042 425.993652,640.665833 
	C429.490540,640.742798 432.991333,640.622986 436.490021,640.647034 
	C439.104523,640.664978 440.527588,639.582642 440.617249,636.823853 
	C440.718719,633.699585 438.768646,633.356445 436.367035,633.368347 
	C430.535461,633.397217 424.703583,633.365173 418.871918,633.384155 
	C416.826324,633.390808 414.728180,633.389832 414.336853,637.044067 
M482.914703,664.928589 
	C486.400482,668.176636 490.905884,669.371582 495.289673,669.439758 
	C502.090271,669.545471 507.294281,667.130920 508.523895,661.297058 
	C509.808136,655.203796 506.955139,651.197571 499.893677,648.919006 
	C497.527985,648.155640 495.088562,647.609070 492.752777,646.769043 
	C491.152924,646.193665 489.714935,645.203735 489.886810,643.160339 
	C490.058624,641.118164 491.772217,640.504150 493.314758,639.973999 
	C495.902161,639.084778 498.266754,640.382019 500.492157,641.342346 
	C504.205322,642.944824 506.026550,641.473267 507.276001,638.143799 
	C504.829895,635.283997 501.620667,634.204834 498.415283,633.543457 
	C491.049622,632.023438 484.072723,635.960388 482.549103,642.162781 
	C481.291626,647.281677 485.616364,652.321045 493.109894,654.456665 
	C494.703827,654.911011 496.332184,655.260132 497.897186,655.796204 
	C499.766296,656.436584 501.214355,657.719299 501.005768,659.796753 
	C500.767029,662.174500 498.763184,662.311035 496.844788,662.369507 
	C493.816986,662.461731 491.021759,662.132202 488.269440,660.452271 
	C484.732666,658.293701 482.475555,660.028442 482.914703,664.928589 
M534.696106,365.230988 
	C531.487610,369.859283 531.637695,374.813751 534.546082,379.216492 
	C537.423462,383.572388 541.956482,385.977997 547.378967,385.131195 
	C553.840576,384.122040 557.855896,379.457092 558.562927,372.837952 
	C559.001709,368.728882 555.540833,362.917297 551.537231,361.040436 
	C546.811157,358.824890 538.858948,360.562561 534.696106,365.230988 
M349.536621,390.604584 
	C350.814606,390.285919 352.102142,390.001068 353.368988,389.642914 
	C360.491241,387.629456 363.989166,381.055023 361.848022,373.737518 
	C359.709076,366.427582 353.082794,363.668304 344.099915,366.347015 
	C338.581146,367.992706 335.249756,375.217926 337.342834,381.352356 
	C339.189911,386.765839 343.570557,389.218262 349.536621,390.604584 
M551.349609,650.501465 
	C551.352722,655.141602 551.397156,659.782288 551.342346,664.421753 
	C551.313049,666.906006 551.912842,668.581970 554.874329,668.645325 
	C557.741333,668.706726 558.664368,667.308167 558.653259,664.691101 
	C558.614380,655.576721 558.599854,646.461853 558.663696,637.347717 
	C558.682312,634.686157 557.728271,633.354919 554.905029,633.378235 
	C551.942810,633.402710 551.312317,635.083069 551.344849,637.573608 
	C551.396912,641.550171 551.353333,645.527954 551.349609,650.501465 
z"/>
<path fill="#000000" opacity="1.000000" stroke="none" 
	d="
M349.170746,661.960449 
	C346.509705,655.490112 347.917480,649.015442 347.912476,642.615723 
	C347.911163,640.916138 349.586121,640.879517 350.933472,640.708435 
	C358.754608,639.715210 364.662170,643.978699 365.154663,651.006409 
	C365.588928,657.202393 360.082123,662.176453 352.589233,662.320801 
	C351.595734,662.339844 350.599030,662.195557 349.170746,661.960449 
z"/>
</svg>